<svg width="34" height="34" viewBox="0 0 34 34" fill="none" xmlns="http://www.w3.org/2000/svg"><path d="M16.9987 8.15628C12.2003 8.15628 8.22452 12.0635 8.22452 16.9305C8.22452 21.7974 12.1318 25.7047 16.9987 25.7047C21.8656 25.7047 25.7729 21.7289 25.7729 16.9305C25.7729 12.1321 21.7971 8.15628 16.9987 8.15628ZM16.9987 22.5514C13.914 22.5514 11.3777 20.0152 11.3777 16.9305C11.3777 13.8458 13.914 11.3095 16.9987 11.3095C20.0834 11.3095 22.6197 13.8458 22.6197 16.9305C22.6197 20.0152 20.0834 22.5514 16.9987 22.5514Z" fill="#A8A8A8"/><path d="M26.1165 9.939C27.2144 9.939 28.1045 9.04898 28.1045 7.9511C28.1045 6.85321 27.2144 5.96319 26.1165 5.96319C25.0187 5.96319 24.1286 6.85321 24.1286 7.9511C24.1286 9.04898 25.0187 9.939 26.1165 9.939Z" fill="#A8A8A8"/><path d="M31.2581 2.81048C29.4758 0.959677 26.9395 0 24.0605 0H9.93952C3.97581 0 0 3.97581 0 9.93952V23.9919C0 26.9395 0.959677 29.4758 2.87903 31.3266C4.72984 33.1089 7.19758 34 10.0081 34H23.9919C26.9395 34 29.4073 33.0403 31.1895 31.3266C33.0403 29.5444 34 27.0081 34 24.0605V9.93952C34 7.06048 33.0403 4.59274 31.2581 2.81048ZM30.9839 24.0605C30.9839 26.1855 30.2298 27.8992 28.996 29.0645C27.7621 30.2298 26.0484 30.8468 23.9919 30.8468H10.0081C7.95161 30.8468 6.2379 30.2298 5.00403 29.0645C3.77016 27.8306 3.15323 26.1169 3.15323 23.9919V9.93952C3.15323 7.88306 3.77016 6.16935 5.00403 4.93548C6.16935 3.77016 7.95161 3.15323 10.0081 3.15323H24.129C26.1855 3.15323 27.8992 3.77016 29.1331 5.00403C30.2984 6.2379 30.9839 7.95161 30.9839 9.93952V24.0605Z" fill="#A8A8A8"/></svg>