<svg width="1684" height="754" viewBox="0 0 1684 754" fill="none" xmlns="http://www.w3.org/2000/svg">
<mask id="mask0_3_325" style="mask-type:alpha" maskUnits="userSpaceOnUse" x="0" y="0" width="1684" height="754">
<rect width="1684" height="754" fill="url(#paint0_linear_3_325)"/>
</mask>
<g mask="url(#mask0_3_325)">
<g style="mix-blend-mode:color-dodge" opacity="0.22">
<mask id="mask1_3_325" style="mask-type:luminance" maskUnits="userSpaceOnUse" x="-625" y="-864" width="2996" height="2542">
<path d="M-625 234.803L61.7521 1677.68L2370.35 578.872L1683.6 -864L-625 234.803Z" fill="white"/>
</mask>
<g mask="url(#mask1_3_325)">
<path d="M-624.998 234.803L61.7535 1677.68L2370.35 578.872L1683.6 -864L-624.998 234.803Z" fill="#005773"/>
<path d="M1505.17 -12.1436L1590.63 77.754L2027.07 450.853L2102.37 473.573L1534.42 -11.9403L1505.17 -12.1436Z" fill="#2BAF81"/>
<path d="M1444.11 84.8596L1787.81 378.663L1863.11 401.382L1497.52 88.8701L1444.11 84.8596Z" fill="#2BAF81"/>
<path d="M1563.34 -11.743L2132.46 474.772L2086.44 393.767L1612.45 -11.4184L1563.34 -11.743Z" fill="#2BAF81"/>
<path d="M1641.37 -11.2207L2059.33 346.074L2013.29 265.076L1690.48 -10.8818L1641.37 -11.2207Z" fill="#2BAF81"/>
<path d="M1359.25 78.4932L1668.18 342.566L1743.48 365.286L1412.68 82.4968L1359.25 78.4932Z" fill="#2BAF81"/>
<path d="M1528.98 91.2386L1907.44 414.758L1982.74 437.477L1582.39 95.2492L1528.98 91.2386Z" fill="#2BAF81"/>
<path d="M1623.84 329.197L1327.81 76.1318L1274.39 72.1281L1548.54 306.478L1623.84 329.197Z" fill="#2BAF81"/>
<path d="M1318.31 1.83279L1038.86 -237.037L968.914 -255.192L1259.39 -6.88071L1318.31 1.83279Z" fill="#2BAF81"/>
<path d="M1181.27 -18.4402L1224.7 -12.0146L1029.15 -179.165L1181.27 -18.4402Z" fill="#2BAF81"/>
<path d="M1416.12 -46.9014L1261.12 -179.391L1191.16 -197.54L1370.57 -44.1761L1416.12 -46.9014Z" fill="#2BAF81"/>
<path d="M1411.92 15.6945L1150 -208.225L1080.04 -226.359L1352.99 6.96649L1411.92 15.6945Z" fill="#2BAF81"/>
<path d="M892.663 64.5948L819.288 1.86433L800.683 27.6207L830.55 53.1533L892.663 64.5948Z" fill="#2BAF81"/>
<path d="M991.341 82.7725L848.837 -39.0465L830.232 -13.2901L929.228 71.3309L991.341 82.7725Z" fill="#2BAF81"/>
<path d="M1096.29 147.96L1496.36 489.969L1482.05 436.062L1104.04 112.93L1096.29 147.96Z" fill="#2BAF81"/>
<path d="M1090.01 100.936L878.384 -79.9572L859.793 -54.2077L1027.9 89.5087L1090.01 100.936Z" fill="#2BAF81"/>
<path d="M1550.3 692.945L1067.11 279.89L1059.36 314.921L1564.63 746.845L1550.3 692.945Z" fill="#2BAF81"/>
<path d="M1573.06 778.566L1054.79 335.538L1047.04 370.569L1587.38 832.466L1573.06 778.566Z" fill="#2BAF81"/>
<path d="M1083.99 203.616L1519.11 575.589L1504.79 521.703L1091.72 168.592L1083.99 203.616Z" fill="#2BAF81"/>
<path d="M1459.29 350.441L907.935 -120.869L889.345 -95.1197L1473.62 404.341L1459.29 350.441Z" fill="#2BAF81"/>
<path d="M1071.66 259.264L1541.87 661.21L1527.55 607.324L1079.41 224.234L1071.66 259.264Z" fill="#2BAF81"/>
<path d="M1444.96 296.526L1181.43 46.751L937.5 -161.788L918.895 -136.031L1450.87 318.72L1444.96 296.526Z" fill="#2BAF81"/>
<path d="M1542.76 818.842L1042.48 391.195L1034.73 426.226L1466.08 794.952L1542.76 818.842Z" fill="#2BAF81"/>
<path d="M1177.3 704.973L1005.55 558.141L997.8 593.171L1100.62 681.069L1177.3 704.973Z" fill="#2BAF81"/>
<path d="M1420.94 780.887L1030.17 446.836L1022.43 481.867L1344.26 756.998L1420.94 780.887Z" fill="#2BAF81"/>
<path d="M986.247 645.426L1055.48 666.998L993.244 613.797L986.247 645.426Z" fill="#2BAF81"/>
<path d="M1299.12 742.927L1017.86 502.5L1010.11 537.53L1222.45 719.037L1299.12 742.927Z" fill="#2BAF81"/>
<path d="M81.1849 300.436L-255.986 12.1989L-315.799 2.72478L24.1415 293.324L81.1849 300.436Z" fill="#2BAF81"/>
<path d="M459.122 160.282L409.265 117.664L349.452 108.19L414.425 163.717L459.122 160.282Z" fill="#2BAF81"/>
<path d="M388.104 165.752L314.229 102.604L254.408 93.1158L343.407 169.187L388.104 165.752Z" fill="#2BAF81"/>
<path d="M317.085 171.22L219.193 87.5425L159.372 78.054L272.388 174.655L317.085 171.22Z" fill="#2BAF81"/>
<path d="M33.0261 193.086L-160.945 27.2747L-220.765 17.786L-11.6851 196.528L33.0261 193.086Z" fill="#2BAF81"/>
<path d="M104.03 187.625L-65.9082 42.336L-125.729 32.8474L59.3334 191.06L104.03 187.625Z" fill="#2BAF81"/>
<path d="M175.049 182.156L29.1279 57.3978L-30.7003 47.9306L130.352 185.592L175.049 182.156Z" fill="#2BAF81"/>
<path d="M246.067 176.688L124.157 72.4807L64.336 62.992L201.37 180.123L246.067 176.688Z" fill="#2BAF81"/>
<path d="M530.14 154.814L504.308 132.741L444.488 123.252L485.436 158.27L530.14 154.814Z" fill="#2BAF81"/>
<path d="M601.159 149.346L599.345 147.802L539.524 138.314L556.454 152.802L601.159 149.346Z" fill="#2BAF81"/>
<path d="M1380.35 1027.62L1091.06 722.517L1031.13 702.162L1398.85 1089.95L1380.35 1027.62Z" fill="#2BAF81"/>
<path d="M1510.25 960.405L1376.67 819.525L1316.74 799.17L1469.78 960.556L1510.25 960.405Z" fill="#2BAF81"/>
<path d="M1445.93 960.651L1281.47 787.185L1221.54 766.83L1405.45 960.787L1445.93 960.651Z" fill="#2BAF81"/>
<path d="M1360.58 960.943L1381.61 960.88L1186.26 754.843L1126.34 734.502L1369.48 990.915L1360.58 960.943Z" fill="#2BAF81"/>
<path d="M944.259 740.659L1454.2 1276.63L1439.1 1225.72L987.65 749.614L944.259 740.659Z" fill="#2BAF81"/>
<path d="M1409.72 1126.67L1067.92 766.184L1017.4 755.754L1428.23 1189L1409.72 1126.67Z" fill="#2BAF81"/>
<path d="M334.416 1130.82L-89.1163 768.782L-154.353 767.287L279.093 1137.81L334.416 1130.82Z" fill="#004254"/>
<path d="M487.35 1111.51L351.977 965.932L368.096 961.092L149.552 774.289L84.3226 772.772L481.439 1112.26L487.35 1111.51Z" fill="#004254"/>
<path d="M266.956 1139.34L-168.669 766.952L-234.356 765.441L211.268 1146.38L266.956 1139.34Z" fill="#004254"/>
<path d="M469.302 1113.79L69.9981 772.458L4.75481 770.948L413.993 1120.77L469.302 1113.79Z" fill="#004254"/>
<path d="M401.856 1122.3L-9.56198 770.613L-74.7984 769.117L346.554 1129.29L401.856 1122.3Z" fill="#004254"/>
<path d="M378.392 957.997L425.369 943.884L229.121 776.113L163.877 774.603L378.392 957.997Z" fill="#004254"/>
<path d="M539.929 909.462L388.229 779.774L322.993 778.278L492.952 923.575L539.929 909.462Z" fill="#004254"/>
<path d="M-248.672 765.105L-313.916 763.595L143.822 1154.89L199.131 1147.91L-248.672 765.105Z" fill="#004254"/>
<path d="M769.056 840.633L706.452 787.11L641.215 785.615L722.079 854.745L769.056 840.633Z" fill="#004254"/>
<path d="M711.777 857.826L626.899 785.28L561.655 783.77L664.807 871.953L711.777 857.826Z" fill="#004254"/>
<path d="M826.343 823.419L786.006 788.941L720.769 787.446L779.366 837.531L826.343 823.419Z" fill="#004254"/>
<path d="M467.79 781.619L402.547 780.109L550.24 906.36L597.217 892.248L467.79 781.619Z" fill="#004254"/>
<path d="M654.49 875.04L547.344 783.449L482.101 781.94L607.513 889.153L654.49 875.04Z" fill="#004254"/>
<path d="M482.656 926.67L308.675 777.943L243.438 776.448L435.679 940.782L482.656 926.67Z" fill="#004254"/>
<path d="M-620.025 116.411L-659.822 136.646L2.52373 702.866L65.4892 702.417L-620.025 116.411Z" fill="#004254"/>
<path d="M93.5337 702.217L-171.294 433.826L-266.923 352.079L-325.74 356.076L79.3007 702.32L93.5337 702.217Z" fill="#004254"/>
<path d="M1001.63 185.832L952.865 191.361L993.771 226.329L1001.63 185.832Z" fill="#004254"/>
<path d="M901.046 703.287L903.468 690.825L393.363 254.761L337.316 261.121L852.694 701.683L901.046 703.287Z" fill="#004254"/>
<path d="M947.593 463.844L666.769 223.789L610.715 230.134L938.542 510.378L947.593 463.844Z" fill="#004254"/>
<path d="M596.677 693.267L273.906 417.36L189.84 399.767L530.639 691.091L596.677 693.267Z" fill="#004254"/>
<path d="M914.491 634.079L461.71 247.025L405.656 253.37L905.461 680.621L914.491 634.079Z" fill="#004254"/>
<path d="M677.186 695.917L376.422 438.807L292.357 421.214L611.163 693.734L677.186 695.917Z" fill="#004254"/>
<path d="M936.556 520.596L598.408 231.532L542.354 237.878L927.519 567.124L936.556 520.596Z" fill="#004254"/>
<path d="M355.124 685.311L-33.626 352.993L-97.9582 339.529L-29.6142 410.689L289.107 683.143L355.124 685.311Z" fill="#004254"/>
<path d="M516.165 690.618L171.394 395.893L87.3286 378.3L450.127 688.442L516.165 690.618Z" fill="#004254"/>
<path d="M991.779 236.532L940.558 192.759L884.504 199.104L982.734 283.081L991.779 236.532Z" fill="#004254"/>
<path d="M925.536 577.341L530.064 239.267L474.017 245.627L916.484 623.876L925.536 577.341Z" fill="#004254"/>
<path d="M757.696 698.567L478.924 460.261L394.859 442.668L691.672 696.385L757.696 698.567Z" fill="#004254"/>
<path d="M958.681 406.783L735.511 215.988L679.063 222.397L949.58 453.624L958.681 406.783Z" fill="#004254"/>
<path d="M980.743 293.285L872.213 200.495L816.166 206.854L971.705 339.812L980.743 293.285Z" fill="#004254"/>
<path d="M435.636 687.96L68.8789 374.445L-15.1721 356.845L369.619 685.791L435.636 687.96Z" fill="#004254"/>
<path d="M969.72 350.031L803.859 208.252L747.805 214.597L960.668 396.565L969.72 350.031Z" fill="#004254"/>
<path d="M230.228 681.205L274.615 682.661L34.3313 477.252L230.228 681.205Z" fill="#004254"/>
<path d="M275.43 269.675L484.954 453.515L772.184 699.033L838.208 701.216L325.002 262.504L307.574 264.481L307.756 264.678L275.43 269.675Z" fill="#004254"/>
<path d="M1892.64 659.478L1637.35 441.248L1776.05 614.078L1841.15 669.722L1892.64 659.478Z" fill="#004254"/>
<path d="M1955.46 646.996L1707.42 434.961L1607.09 403.464L1903.94 657.232L1955.46 646.996Z" fill="#004254"/>
<path d="M1554.46 421.913L1555.39 425.434L1563.39 432.279L1554.46 421.913Z" fill="#004254"/>
<path d="M1602.17 477.34L1559.41 440.793L1577.77 510.753L1778.9 682.679L1602.17 477.34Z" fill="#004254"/>
<path d="M1963.43 852.332L1581.8 526.092L1600.15 596.06L1929.79 877.847L1963.43 852.332Z" fill="#004254"/>
<path d="M1861.85 897.863L1626.55 696.718L1644.91 766.665L1766.67 870.748L1861.85 897.863Z" fill="#004254"/>
<path d="M1892.06 906.455L1922.42 883.443L1604.18 611.412L1622.53 681.359L1882.75 903.808L1892.06 906.455Z" fill="#004254"/>
<path d="M632.072 113.04L211.957 -246.097L171.181 -226.689L552.148 98.9801L632.072 113.04Z" fill="#004254"/>
<path d="M242.219 44.479L13.0581 -151.429L-27.7319 -132.014L162.295 30.4187L242.219 44.479Z" fill="#004254"/>
<path d="M741.24 7.8303L361.138 -317.101L320.363 -297.693L714.048 38.8593L741.24 7.8303Z" fill="#004254"/>
<path d="M437.137 78.7561L112.503 -198.759L71.727 -179.352L357.213 64.6957L437.137 78.7561Z" fill="#004254"/>
<path d="M534.613 95.8943L162.224 -222.425L121.448 -203.018L454.675 81.8408L534.613 95.8943Z" fill="#004254"/>
<path d="M807.545 -67.8486L460.579 -364.432L419.804 -345.024L780.353 -36.8195L807.545 -67.8486Z" fill="#004254"/>
<path d="M708.082 45.6625L311.401 -293.428L270.626 -274.021L680.89 76.6916L708.082 45.6625Z" fill="#004254"/>
<path d="M774.395 -30.0021L410.858 -340.766L370.083 -321.359L747.203 1.02701L774.395 -30.0021Z" fill="#004254"/>
<path d="M674.924 83.4949L261.679 -269.763L220.903 -250.355L647.733 114.524L674.924 83.4949Z" fill="#004254"/>
<path d="M840.688 -105.674L510.317 -388.104L469.527 -368.69L813.511 -74.6523L840.688 -105.674Z" fill="#004254"/>
<path d="M339.672 61.6111L62.7781 -175.093L22.0025 -155.686L259.755 47.5652L339.672 61.6111Z" fill="#004254"/>
<path d="M144.757 27.3343L-36.6777 -127.755L-77.4533 -108.348L64.8327 13.2739L144.757 27.3343Z" fill="#004254"/>
<path d="M47.2807 10.1946L-86.3991 -104.091L-127.175 -84.6833L-32.6434 -3.86582L47.2807 10.1946Z" fill="#004254"/>
</g>
</g>
</g>
<defs>
<linearGradient id="paint0_linear_3_325" x1="1951.02" y1="-184.05" x2="1848.73" y2="952.827" gradientUnits="userSpaceOnUse">
<stop stop-color="#176B87"/>
<stop offset="0.5" stop-color="#000C15"/>
<stop offset="1" stop-color="#001C30"/>
</linearGradient>
</defs>
</svg>