<svg width="163" height="57" viewBox="0 0 163 57" fill="none" xmlns="http://www.w3.org/2000/svg"><path d="M31.242 17.2627V11.237H12.7735V45.7624H31.242V39.5737H18.9566V28.3367H44.0154V49.8334L36.8558 56.999H7.15961L0 49.8334V7.16556L7.15961 0H36.8558L44.0154 7.16556V17.2627H31.242Z" fill="white"/><path d="M83.225 19.9877V51.6779L77.9073 57H55.8512L50.5336 51.6779V19.9877L55.8512 14.6656H77.9073L83.225 19.9877ZM60.0211 48.6537H73.7383V23.0115H60.0211V48.6537Z" fill="white"/><path d="M121.391 19.9877V57H111.904V48.412H98.1864V57H88.6993V19.9877L94.017 14.6656H116.073L121.39 19.9877H121.391ZM111.904 40.0055V23.0115H98.1869V40.0055H111.904Z" fill="white"/><path d="M162.439 14.6656V23.0115H148.783V56.9995H139.296V23.0115H125.579V14.6656H162.44H162.439Z" fill="white"/><path d="M59.5785 0.0683629V9.69052H57.4218V7.0238L53.8645 3.79326V9.69052H51.7079V0.0683629H53.8645V0.906739L57.4218 4.12339V0.0683629H59.5785Z" fill="white"/><path d="M87.8867 1.96547V3.93151H90.5651V5.82848H87.8867V7.79452H92.2956V9.69149H85.7305V0.0693395H92.2956V1.96632H87.8867V1.96547Z" fill="white"/><path d="M125.676 3.34017L123.629 4.87965L125.676 6.41913V9.69052H123.519V7.36741L121.912 6.17153L120.306 7.36741V9.69052H118.149V6.41913L120.223 4.89313L118.149 3.33975V0.0683629H120.306V2.39148L121.954 3.62861L123.52 2.47401V0.0683629H125.676V3.33975L125.676 3.34017Z" fill="white"/><path d="M159.78 0.0683629V1.96534H156.675V9.69094H154.519V1.96534H151.401V0.0683629H159.78Z" fill="white"/></svg>